<?xml version="1.0" ?><!DOCTYPE svg  PUBLIC '-//W3C//DTD SVG 1.1//EN'  'http://www.w3.org/Graphics/SVG/1.1/DTD/svg11.dtd' [
	<!ENTITY stroke_color "#666666">
	<!ENTITY fill_color "none">
]><svg enable-background="new 0 0 55 55" height="55px" id="svg2" inkscape:version="0.48.3.1 r9886" sodipodi:docname="activity-ircchat.svg" style="" version="1.1" viewBox="0 0 55 55" width="55px" x="0px" xml:space="preserve" xmlns="http://www.w3.org/2000/svg" xmlns:cc="http://creativecommons.org/ns#" xmlns:dc="http://purl.org/dc/elements/1.1/" xmlns:inkscape="http://www.inkscape.org/namespaces/inkscape" xmlns:rdf="http://www.w3.org/1999/02/22-rdf-syntax-ns#" xmlns:sodipodi="http://sodipodi.sourceforge.net/DTD/sodipodi-0.dtd" xmlns:svg="http://www.w3.org/2000/svg" y="0px"><metadata id="metadata11" style=""><rdf:RDF style=""><cc:Work rdf:about="" style=""><dc:format style="">image/svg+xml</dc:format><dc:type rdf:resource="http://purl.org/dc/dcmitype/StillImage" style=""/><dc:title style=""/></cc:Work></rdf:RDF></metadata><defs id="defs9" style=""/><sodipodi:namedview bordercolor="#666666" borderopacity="1" gridtolerance="10" guidetolerance="10" id="namedview7" inkscape:current-layer="activity-irc_x5F_chat" inkscape:cx="34.025424" inkscape:cy="27.5" inkscape:pageopacity="0" inkscape:pageshadow="2" inkscape:window-height="551" inkscape:window-maximized="1" inkscape:window-width="1024" inkscape:window-x="0" inkscape:window-y="24" inkscape:zoom="4.2909091" objecttolerance="10" pagecolor="#ffffff" showgrid="false" style=""/><g display="block" id="activity-irc_x5F_chat" style="">
	
	
<path d="m 5.646,9.404 v 31.86 h 8.943 c 1.602,1.892 -3.98,6.839 -3.98,6.839 7.275,0.873 13.643,-6.257 13.643,-6.257 H 49.104 V 9.404 H 5.646 z" id="rect3365" inkscape:connector-curvature="0" style="fill:&fill_color;;stroke:&stroke_color;;stroke-width:3.5;stroke-linecap:round;stroke-linejoin:round"/><path d="m 33.066346,29.636839 c 1.227,-0.683 1.062,-3.312 -0.354,-5.874 -0.61,-1.104 -1.358,-1.998 -2.108,-2.623 -0.875,0.642 -1.938,1.031 -3.102,1.031 -1.165,0 -2.231,-0.391 -3.104,-1.031 -0.75,0.625 -1.498,1.52 -2.111,2.623 -1.422,2.562 -1.578,5.191 -0.35,5.874 0.549,0.312 1.127,0.078 1.723,-0.496 -0.105,0.582 -0.166,1.213 -0.166,1.873 0,2.938 1.139,5.312 2.543,5.312 0.846,0 1.265,-0.854 1.466,-2.188 0.2,1.314 0.62,2.188 1.46,2.188 1.396,0 2.545,-2.375 2.545,-5.312 0,-0.66 -0.062,-1.291 -0.168,-1.873 0.599,0.574 1.176,0.811 1.726,0.496 z m -5.566,-8.466 c 2.361,0 4.277,-1.916 4.277,-4.279 0,-2.362 -1.916,-4.277 -4.277,-4.277 -2.363,0 -4.28,1.916 -4.28,4.278 0.001,2.363 1.918,4.278 4.28,4.278 z m 8.594,2.713 c 1.938,0 3.512,-1.573 3.512,-3.513 0,-1.94 -1.562,-3.513 -3.512,-3.513 -1.939,0 -3.513,1.572 -3.513,3.513 0,1.94 1.571,3.513 3.513,3.513 z m 4.28,2.129 c -0.502,-0.907 -1.116,-1.641 -1.731,-2.153 -0.719,0.525 -1.595,0.846 -2.547,0.846 -0.756,0 -1.459,-0.207 -2.076,-0.55 0.496,1.092 0.812,2.199 0.861,3.189 0.094,1.516 -0.381,2.641 -1.329,3.165 -0.204,0.117 -0.426,0.183 -0.653,0.224 -0.056,0.396 -0.094,0.801 -0.094,1.231 0,2.412 0.938,4.36 2.088,4.36 0.693,0 1.039,-0.709 1.203,-1.795 0.163,1.078 0.508,1.795 1.199,1.795 1.146,0 2.09,-1.949 2.09,-4.36 0,-0.542 -0.052,-1.06 -0.139,-1.538 0.492,0.473 0.966,0.667 1.418,0.407 1.007,-0.559 0.877,-2.718 -0.29,-4.821 z m -21.468,-2.129 c 1.939,0 3.512,-1.573 3.512,-3.513 0,-1.94 -1.572,-3.512 -3.512,-3.512 -1.94,0 -3.514,1.572 -3.514,3.513 10e-4,1.939 1.574,3.512 3.514,3.512 z m 2.535,6.622 c -1.593,-0.886 -1.739,-3.524 -0.457,-6.354 -0.619,0.346 -1.322,0.553 -2.078,0.553 -0.956,0 -1.832,-0.321 -2.549,-0.846 -0.616,0.513 -1.229,1.246 -1.733,2.153 -1.167,2.104 -1.295,4.262 -0.287,4.821 0.451,0.257 0.925,0.062 1.414,-0.407 -0.086,0.479 -0.136,0.996 -0.136,1.538 0,2.412 0.935,4.36 2.088,4.36 0.694,0 1.039,-0.709 1.204,-1.795 0.165,1.078 0.509,1.795 1.201,1.795 1.146,0 2.089,-1.949 2.089,-4.36 0,-0.433 -0.04,-0.841 -0.097,-1.233 -0.225,-0.04 -0.449,-0.105 -0.659,-0.225 z" id="people" inkscape:connector-curvature="0" style="fill:&stroke_color;;fill-opacity:1;stroke:&stroke_color;;stroke-width:0.29999999999999999;stroke-miterlimit:4;stroke-dasharray:none;stroke-linejoin:round"/></g></svg>